<svg width="160" height="160" viewBox="0 0 160 160" fill="none" xmlns="http://www.w3.org/2000/svg">
<path d="M120 26.6667V106.667C120 110.203 118.595 113.594 116.094 116.095C113.594 118.595 110.203 120 106.666 120H26.6663C23.1301 120 19.7387 118.595 17.2383 116.095C14.7378 113.594 13.333 110.203 13.333 106.667V26.6667C13.333 23.1305 14.7378 19.7391 17.2383 17.2386C19.7387 14.7381 23.1301 13.3333 26.6663 13.3333H106.666C110.203 13.3333 113.594 14.7381 116.094 17.2386C118.595 19.7391 120 23.1305 120 26.6667ZM146.666 133.333V33.3333C146.666 31.5652 145.964 29.8695 144.714 28.6193C143.463 27.3691 141.768 26.6667 140 26.6667C138.232 26.6667 136.536 27.3691 135.286 28.6193C134.035 29.8695 133.333 31.5652 133.333 33.3333V133.333H46.6663C44.8982 133.333 43.2025 134.036 41.9523 135.286C40.7021 136.536 39.9997 138.232 39.9997 140C39.9997 141.768 40.7021 143.464 41.9523 144.714C43.2025 145.964 44.8982 146.667 46.6663 146.667H133.333C136.869 146.667 140.261 145.262 142.761 142.761C145.262 140.261 146.666 136.87 146.666 133.333Z" fill="#022A93"/>
<path d="M61.6671 85.8667C60.785 85.863 59.9125 85.6844 59.1 85.341C58.2875 84.9977 57.5512 84.4966 56.9337 83.8667L41.9337 68.8667C40.6921 67.6176 39.9951 65.9279 39.9951 64.1667C39.9951 62.4054 40.6921 60.7158 41.9337 59.4667C42.5535 58.8418 43.2908 58.3459 44.1032 58.0074C44.9156 57.6689 45.787 57.4947 46.6671 57.4947C47.5471 57.4947 48.4185 57.6689 49.2309 58.0074C50.0433 58.3459 50.7806 58.8418 51.4004 59.4667L61.6671 69.7333L81.6671 49.7333C82.2868 49.1085 83.0242 48.6125 83.8366 48.2741C84.6489 47.9356 85.5203 47.7614 86.4004 47.7614C87.2805 47.7614 88.1519 47.9356 88.9642 48.2741C89.7766 48.6125 90.514 49.1085 91.1337 49.7333C92.3754 50.9824 93.0723 52.6721 93.0723 54.4333C93.0723 56.1946 92.3754 57.8843 91.1337 59.1333L66.6671 83.8667C66.0186 84.5294 65.2389 85.0496 64.378 85.394C63.5171 85.7384 62.5937 85.8994 61.6671 85.8667Z" fill="white"/>
</svg>
