<svg width="80" height="80" viewBox="0 0 80 80" fill="none" xmlns="http://www.w3.org/2000/svg">
<circle cx="40" cy="40" r="40" fill="url(#paint0_linear_470_2494)"/>
<path opacity="0.4" d="M56.6667 33.0163V46.983C56.6667 51.6663 54.5167 54.883 50.7334 56.0997C49.6334 56.483 48.3667 56.6663 46.9834 56.6663H33.0167C31.6334 56.6663 30.3667 56.483 29.2667 56.0997C25.4834 54.883 23.3334 51.6663 23.3334 46.983V33.0163C23.3334 26.9497 26.95 23.333 33.0167 23.333H46.9834C53.05 23.333 56.6667 26.9497 56.6667 33.0163Z" fill="#DAE4F4"/>
<path d="M50.7343 56.0999C49.6343 56.4832 48.3677 56.6665 46.9843 56.6665H33.0176C31.6342 56.6665 30.3676 56.4832 29.2676 56.0999C29.8509 51.6999 34.4509 48.2832 40.0008 48.2832C45.5508 48.2832 50.151 51.6999 50.7343 56.0999Z" fill="#DAE4F4"/>
<path d="M45.9665 39.2997C45.9665 42.5997 43.2998 45.283 39.9998 45.283C36.6998 45.283 34.0332 42.5997 34.0332 39.2997C34.0332 35.9997 36.6998 33.333 39.9998 33.333C43.2998 33.333 45.9665 35.9997 45.9665 39.2997Z" fill="#DAE4F4"/>
<defs>
<linearGradient id="paint0_linear_470_2494" x1="40" y1="0" x2="40" y2="80" gradientUnits="userSpaceOnUse">
<stop stop-color="#022A93"/>
<stop offset="1" stop-color="#1488DB"/>
</linearGradient>
</defs>
</svg>
