<svg width="80" height="80" viewBox="0 0 80 80" fill="none" xmlns="http://www.w3.org/2000/svg">
<circle cx="40" cy="40" r="40" fill="url(#paint0_linear_470_2451)"/>
<path d="M49.3971 20C50.0052 20 50.5925 20.2216 51.0489 20.6234L56.0268 25.0052C56.566 25.4798 56.875 26.1634 56.875 26.8817V56.25C56.875 58.3211 55.1961 60 53.125 60H26.875C24.8039 60 23.125 58.3211 23.125 56.25V23.75C23.125 21.6789 24.8039 20 26.875 20H49.3971Z" fill="#DAE4F4"/>
<path d="M49.3971 20C50.0052 20 50.5925 20.2216 51.0489 20.6234L56.0268 25.0052C56.566 25.4798 56.875 26.1634 56.875 26.8817V28.75H53.125C51.0539 28.75 49.375 27.0711 49.375 25V20H49.3971Z" fill="#92ABCF"/>
<defs>
<linearGradient id="paint0_linear_470_2451" x1="40" y1="0" x2="40" y2="80" gradientUnits="userSpaceOnUse">
<stop stop-color="#022A93"/>
<stop offset="1" stop-color="#1488DB"/>
</linearGradient>
</defs>
</svg>
