<svg width="80" height="80" viewBox="0 0 80 80" fill="none" xmlns="http://www.w3.org/2000/svg">
<circle cx="40" cy="40" r="40" fill="url(#paint0_linear_470_2457)"/>
<path d="M52.5 22.5H27.5V27.5H52.5V22.5Z" fill="#1488DB"/>
<path d="M52.5 28.75H27.5C27.1685 28.75 26.8505 28.6183 26.6161 28.3839C26.3817 28.1495 26.25 27.8315 26.25 27.5V22.5C26.25 22.1685 26.3817 21.8505 26.6161 21.6161C26.8505 21.3817 27.1685 21.25 27.5 21.25H52.5C52.8315 21.25 53.1495 21.3817 53.3839 21.6161C53.6183 21.8505 53.75 22.1685 53.75 22.5V27.5C53.75 27.8315 53.6183 28.1495 53.3839 28.3839C53.1495 28.6183 52.8315 28.75 52.5 28.75ZM28.75 26.25H51.25V23.75H28.75V26.25Z" fill="#374458"/>
<path d="M50 27.5H30V35H50V27.5Z" fill="#022A93"/>
<path d="M50 36.25H30C29.6685 36.25 29.3505 36.1183 29.1161 35.8839C28.8817 35.6495 28.75 35.3315 28.75 35V27.5C28.75 27.1685 28.8817 26.8505 29.1161 26.6161C29.3505 26.3817 29.6685 26.25 30 26.25H50C50.3315 26.25 50.6495 26.3817 50.8839 26.6161C51.1183 26.8505 51.25 27.1685 51.25 27.5V35C51.25 35.3315 51.1183 35.6495 50.8839 35.8839C50.6495 36.1183 50.3315 36.25 50 36.25ZM31.25 33.75H48.75V28.75H31.25V33.75Z" fill="#374458"/>
<path d="M47.5 35H32.5V57.5H47.5V35Z" fill="#DAE4F4"/>
<path d="M47.5 58.75H32.5C32.1685 58.75 31.8505 58.6183 31.6161 58.3839C31.3817 58.1495 31.25 57.8315 31.25 57.5V35C31.25 34.6685 31.3817 34.3505 31.6161 34.1161C31.8505 33.8817 32.1685 33.75 32.5 33.75H47.5C47.8315 33.75 48.1495 33.8817 48.3839 34.1161C48.6183 34.3505 48.75 34.6685 48.75 35V57.5C48.75 57.8315 48.6183 58.1495 48.3839 58.3839C48.1495 58.6183 47.8315 58.75 47.5 58.75ZM33.75 56.25H46.25V36.25H33.75V56.25Z" fill="#374458"/>
<path d="M37.5 35H32.5V57.5H37.5V35Z" fill="#92ABCF"/>
<path d="M37.5 58.75H32.5C32.1685 58.75 31.8505 58.6183 31.6161 58.3839C31.3817 58.1495 31.25 57.8315 31.25 57.5V35C31.25 34.6685 31.3817 34.3505 31.6161 34.1161C31.8505 33.8817 32.1685 33.75 32.5 33.75H37.5C37.8315 33.75 38.1495 33.8817 38.3839 34.1161C38.6183 34.3505 38.75 34.6685 38.75 35V57.5C38.75 57.8315 38.6183 58.1495 38.3839 58.3839C38.1495 58.6183 37.8315 58.75 37.5 58.75ZM33.75 56.25H36.25V36.25H33.75V56.25Z" fill="#374458"/>
<path d="M42.5 41.9502C43.5355 41.9502 44.375 41.1107 44.375 40.0752C44.375 39.0397 43.5355 38.2002 42.5 38.2002C41.4645 38.2002 40.625 39.0397 40.625 40.0752C40.625 41.1107 41.4645 41.9502 42.5 41.9502Z" fill="#DAE4F4"/>
<path d="M42.5 43.2002C41.8819 43.2002 41.2777 43.0169 40.7638 42.6735C40.2499 42.3302 39.8494 41.8421 39.6129 41.2711C39.3764 40.7001 39.3145 40.0717 39.435 39.4655C39.5556 38.8593 39.8533 38.3025 40.2903 37.8655C40.7273 37.4284 41.2842 37.1308 41.8903 37.0102C42.4965 36.8897 43.1249 36.9515 43.6959 37.1881C44.2669 37.4246 44.755 37.8251 45.0983 38.339C45.4417 38.8529 45.625 39.4571 45.625 40.0752C45.625 40.4856 45.5442 40.8919 45.3871 41.2711C45.2301 41.6502 44.9999 41.9947 44.7097 42.2849C44.4195 42.5751 44.075 42.8053 43.6959 42.9623C43.3167 43.1194 42.9104 43.2002 42.5 43.2002ZM42.5 39.4502C42.3342 39.4502 42.1753 39.516 42.0581 39.6333C41.9408 39.7505 41.875 39.9094 41.875 40.0752C41.875 40.241 41.9408 40.3999 42.0581 40.5171C42.1753 40.6343 42.3342 40.7002 42.5 40.7002C42.6658 40.7002 42.8247 40.6343 42.9419 40.5171C43.0592 40.3999 43.125 40.241 43.125 40.0752C43.125 39.9094 43.0592 39.7505 42.9419 39.6333C42.8247 39.516 42.6658 39.4502 42.5 39.4502Z" fill="#374458"/>
<defs>
<linearGradient id="paint0_linear_470_2457" x1="40" y1="0" x2="40" y2="80" gradientUnits="userSpaceOnUse">
<stop stop-color="#022A93"/>
<stop offset="1" stop-color="#1488DB"/>
</linearGradient>
</defs>
</svg>
