<svg width="60" height="81" viewBox="0 0 60 81" fill="none" xmlns="http://www.w3.org/2000/svg">
<rect width="60" height="81" fill="#1488DB"/>
<path d="M17.8428 50H13.8883L19.9139 32.5455H24.6696L30.6866 50H26.7321L22.3599 36.5341H22.2235L17.8428 50ZM17.5957 43.1392H26.9366V46.0199H17.5957V43.1392ZM38.7289 50.2386C37.4562 50.2386 36.3226 50.0199 35.3283 49.5824C34.3397 49.1392 33.5584 48.5312 32.9846 47.7585C32.4164 46.9801 32.1238 46.0824 32.1067 45.0653H35.8226C35.8454 45.4915 35.9846 45.8665 36.2402 46.1903C36.5016 46.5085 36.8482 46.7557 37.28 46.9318C37.7118 47.108 38.1976 47.196 38.7374 47.196C39.2999 47.196 39.7971 47.0966 40.2289 46.8977C40.6607 46.6989 40.9988 46.4233 41.2431 46.071C41.4874 45.7187 41.6096 45.3125 41.6096 44.8523C41.6096 44.3864 41.4789 43.9744 41.2175 43.6165C40.9618 43.2528 40.5925 42.9687 40.1096 42.7642C39.6323 42.5597 39.0641 42.4574 38.405 42.4574H36.7772V39.7472H38.405C38.9618 39.7472 39.4533 39.6506 39.8795 39.4574C40.3113 39.2642 40.6465 38.9972 40.8851 38.6562C41.1238 38.3097 41.2431 37.9062 41.2431 37.446C41.2431 37.0085 41.138 36.625 40.9277 36.2955C40.7232 35.9602 40.4334 35.6989 40.0584 35.5114C39.6891 35.3239 39.2573 35.2301 38.763 35.2301C38.263 35.2301 37.8056 35.321 37.3908 35.5028C36.976 35.679 36.6437 35.9318 36.3937 36.2614C36.1437 36.5909 36.0101 36.9773 35.9931 37.4205H32.4562C32.4732 36.4148 32.7601 35.5284 33.317 34.7614C33.8738 33.9943 34.6238 33.3949 35.567 32.9631C36.5158 32.5256 37.5868 32.3068 38.78 32.3068C39.9846 32.3068 41.0385 32.5256 41.942 32.9631C42.8454 33.4006 43.5471 33.9915 44.0471 34.7358C44.5527 35.4744 44.8027 36.304 44.7971 37.2244C44.8027 38.2017 44.4988 39.017 43.8851 39.6705C43.2772 40.3239 42.4846 40.7386 41.5073 40.9148V41.0511C42.7914 41.2159 43.7687 41.6619 44.4391 42.3892C45.1152 43.1108 45.4505 44.0142 45.4448 45.0994C45.4505 46.0938 45.1635 46.9773 44.584 47.75C44.0101 48.5227 43.2175 49.1307 42.2062 49.5739C41.1948 50.017 40.0357 50.2386 38.7289 50.2386Z" fill="white"/>
</svg>
