<svg width="150" height="100" viewBox="0 0 150 100" fill="none" xmlns="http://www.w3.org/2000/svg">
<rect width="150" height="100" fill="#1488DB"/>
<path d="M60.3167 60H55.703L62.7329 39.6364H68.2811L75.301 60H70.6874L65.5865 44.2898H65.4275L60.3167 60ZM60.0283 51.9957H70.926V55.3565H60.0283V51.9957ZM84.6837 60.2784C83.1989 60.2784 81.8764 60.0232 80.7164 59.5128C79.563 58.9957 78.6515 58.2865 77.982 57.3849C77.3191 56.4768 76.9777 55.4295 76.9578 54.2429H81.2931C81.3196 54.7401 81.482 55.1776 81.7803 55.5554C82.0852 55.9266 82.4896 56.215 82.9934 56.4205C83.4971 56.6259 84.0639 56.7287 84.6936 56.7287C85.3499 56.7287 85.9299 56.6127 86.4337 56.3807C86.9375 56.1487 87.3319 55.8272 87.6169 55.4162C87.902 55.0052 88.0445 54.5312 88.0445 53.9943C88.0445 53.4508 87.892 52.9702 87.5871 52.5526C87.2888 52.1283 86.8579 51.7969 86.2945 51.5582C85.7377 51.3196 85.0748 51.2003 84.3059 51.2003H82.4067V48.0384H84.3059C84.9555 48.0384 85.5289 47.9257 86.026 47.7003C86.5298 47.4749 86.9209 47.1634 87.1993 46.7656C87.4777 46.3613 87.6169 45.8906 87.6169 45.3537C87.6169 44.8433 87.4943 44.3958 87.249 44.0114C87.0104 43.6203 86.6723 43.3153 86.2348 43.0966C85.804 42.8778 85.3002 42.7685 84.7235 42.7685C84.1401 42.7685 83.6065 42.8745 83.1226 43.0866C82.6387 43.2921 82.2509 43.5871 81.9593 43.9716C81.6676 44.3561 81.5118 44.8068 81.4919 45.3239H77.3655C77.3854 44.1506 77.7202 43.1165 78.3698 42.2216C79.0194 41.3267 79.8944 40.6274 80.9948 40.1236C82.1018 39.6132 83.3513 39.358 84.7434 39.358C86.1487 39.358 87.3783 39.6132 88.4323 40.1236C89.4863 40.634 90.3049 41.3234 90.8882 42.1918C91.4782 43.0535 91.7699 44.0213 91.7632 45.0952C91.7699 46.2353 91.4152 47.1866 90.6993 47.9489C89.99 48.7112 89.0653 49.1951 87.9252 49.4006V49.5597C89.4233 49.7519 90.5634 50.2723 91.3456 51.1207C92.1345 51.9626 92.5256 53.0166 92.5189 54.2827C92.5256 55.4427 92.1908 56.4735 91.5147 57.375C90.8452 58.2765 89.9204 58.9858 88.7405 59.5028C87.5606 60.0199 86.2083 60.2784 84.6837 60.2784Z" fill="white"/>
</svg>
