<svg width="160" height="160" viewBox="0 0 160 160" fill="none" xmlns="http://www.w3.org/2000/svg">
<path d="M97.1648 141.347C97.0835 141.347 96.9721 141.327 96.8712 141.215L96.9018 140.679L107.471 131.201H89.0463C89.0514 131.045 89.0567 130.534 89.0514 130.433H107.375L96.9824 120.925L96.9518 120.394L97.5129 120.364L108.674 130.565L108.679 131.126L97.4172 141.246L97.1648 141.347ZM75.5299 136.074C72.5878 136.074 70.1918 133.678 70.1918 130.737C70.1918 127.795 72.5878 125.399 75.5299 125.399C78.4669 125.399 80.8578 127.795 80.8578 130.737C80.8578 133.678 78.4669 136.074 75.5299 136.074ZM54.0467 141.529C53.9504 141.529 53.8696 141.493 53.7987 141.433L42.289 131.086L42.2941 130.514L53.708 120.233L54.2536 120.288L54.2133 120.809L43.5426 130.433H61.9978C61.9927 130.534 61.9978 131.045 62.0029 131.201H43.568L54.3097 140.851L54.3345 141.397L54.0467 141.529ZM75.1252 109.213L25.6891 109.183C21.1698 109.041 17.5708 105.341 17.5708 100.751V26.829C17.5708 22.1632 21.3619 18.3669 26.0225 18.3669H57.0294C62.4432 18.3669 66.684 21.8246 69.7826 24.3522C72.0269 26.1819 73.6549 27.5061 75.5601 27.5061H104.586C109.251 27.5061 113.047 31.2972 113.047 35.9578V40.2546H133.762C136.502 40.2546 139.332 41.5434 140.98 43.5456C141.789 44.5259 142.669 46.1336 142.264 48.2108L132.645 100.281C131.932 104.421 129.288 109.213 124.147 109.213H75.8939V117.205C75.7723 117.2 75.2618 117.2 75.1252 117.205V109.213Z" fill="white"/>
<path d="M99.2573 118.453C98.044 117.351 96.1636 117.432 95.0517 118.635C94.5356 119.211 94.2732 119.929 94.2732 120.637C94.2732 121.446 94.5967 122.245 95.2438 122.841C95.2438 122.841 98.0338 125.378 100.723 127.846H86.0338C86.2864 128.776 86.4687 129.736 86.4687 130.737C86.4687 131.808 86.2663 132.809 85.9831 133.79H100.703C98.8583 135.443 97.0149 137.098 95.1728 138.754C94.8644 139.032 94.6177 139.372 94.4488 139.752C94.2799 140.131 94.1924 140.542 94.1919 140.958C94.1901 141.693 94.4602 142.402 94.9503 142.95C96.0522 144.173 97.9328 144.274 99.1461 143.172L110.408 133.052C111.025 132.496 111.379 131.697 111.389 130.858C111.388 130.443 111.302 130.033 111.135 129.654C110.968 129.275 110.724 128.934 110.418 128.654L99.2573 118.453ZM75.5297 122.811C71.1621 122.811 67.6034 126.369 67.6034 130.737C67.6034 135.104 71.1621 138.663 75.5297 138.663C79.887 138.663 83.4456 135.104 83.4456 130.737C83.4456 126.369 79.887 122.811 75.5297 122.811ZM64.5805 130.737C64.5805 129.736 64.7628 128.776 65.0154 127.845H50.2757C53.0559 125.338 55.9473 122.73 55.9473 122.73C56.2588 122.453 56.5081 122.114 56.6789 121.734C56.8497 121.354 56.938 120.942 56.938 120.526C56.938 119.818 56.685 119.111 56.1693 118.544C55.0776 117.321 53.1972 117.22 51.974 118.312L40.56 128.593C40.2513 128.871 40.0045 129.211 39.8356 129.591C39.6667 129.971 39.5795 130.382 39.5797 130.797C39.5797 131.647 39.9332 132.446 40.56 133.011L52.0652 143.354C53.2882 144.456 55.1688 144.344 56.2605 143.131C56.7557 142.59 57.03 141.883 57.0292 141.15C57.0292 140.331 56.6954 139.522 56.038 138.926C56.038 138.926 53.1166 136.307 50.3162 133.79H65.0663C64.7829 132.809 64.5805 131.808 64.5805 130.737ZM133.762 37.6665H115.635V35.9579C115.635 29.8724 110.691 24.9182 104.585 24.9182H75.5598C72.7393 24.9182 66.7749 15.7791 57.0291 15.7791H26.0221C19.9359 15.7791 14.9824 20.7326 14.9824 26.8292V100.751C14.9824 106.726 19.7544 111.589 25.6889 111.771C25.7495 111.771 25.7996 111.801 25.8706 111.801H72.5369V120.253C73.4976 119.98 74.4884 119.788 75.5299 119.788C76.561 119.788 77.5413 119.98 78.4819 120.253V111.801H124.147C130.233 111.801 134.166 106.716 135.187 100.751L144.802 48.7064C146.004 42.5596 139.848 37.6665 133.762 37.6665Z" fill="#374458"/>
<path d="M27.2451 104.037H26.0221C24.2125 104.037 22.7466 102.561 22.7466 100.751V26.8291C22.7466 25.0195 24.2125 23.5432 26.0221 23.5432H57.029C60.5974 23.5432 63.7415 26.1007 66.5118 28.3654C69.1201 30.4887 71.8091 32.6823 75.5597 32.6823H104.585C106.395 32.6823 107.87 34.1483 107.87 35.9578V37.6664H92.4837C86.721 37.6664 81.767 45.5016 79.6241 45.5016H49.0219C42.9253 45.5016 39.1043 50.4655 37.9618 56.5517L28.6707 101.226C28.4584 102.328 28.0439 103.4 27.2451 104.037Z" fill="#022A93"/>
<path d="M127.534 99.4368C127.504 99.6288 126.715 104.037 124.147 104.037H35.8188C35.9504 103.592 36.1729 103.289 36.2738 102.803L45.595 57.987C45.7467 57.1986 46.606 53.2658 49.0222 53.2658H79.6242C83.4757 53.2658 85.9935 50.9406 88.4299 48.686C89.4911 47.7056 91.6748 45.6833 92.6557 45.4307H133.762C135.632 45.4307 137.098 46.7248 137.169 47.3009L127.534 99.4368Z" fill="#1488DB"/>
<path d="M122.631 61.6367H92.9995C91.2708 61.6367 89.8653 63.0318 89.8653 64.7605C89.8653 66.4893 91.2706 67.8947 92.9995 67.8947H122.631C124.35 67.8947 125.744 66.4895 125.744 64.7605C125.745 63.0318 124.35 61.6367 122.631 61.6367ZM119.841 75.4464H90.2195C88.4907 75.4464 87.0952 76.8517 87.0952 78.5806C87.0952 80.3093 88.4907 81.7044 90.2195 81.7044H119.841C121.559 81.7044 122.964 80.3093 122.964 78.5806C122.964 76.8517 121.559 75.4464 119.841 75.4464Z" fill="#374458"/>
<path d="M75.5597 32.6823C71.8091 32.6823 69.12 30.4887 66.5118 28.3654C63.7415 26.1008 60.5974 23.5432 57.029 23.5432H26.0221C24.2125 23.5432 22.7466 25.0195 22.7466 26.8291V32.6823H75.5597Z" fill="white"/>
</svg>
